<mxfile host="app.diagrams.net" modified="2024-02-01T11:22:32.863Z" agent="Mozilla/5.0 (Windows NT 10.0; Win64; x64; rv:122.0) Gecko/20100101 Firefox/122.0" etag="Ybgws2SFSb1ocxvBku0s" version="23.1.0" type="device">
  <diagram name="Page-1" id="bd83a815-5ea8-2e97-e5ec-87c9f400f2fa">
    <mxGraphModel dx="1291" dy="525" grid="1" gridSize="10" guides="1" tooltips="1" connect="1" arrows="1" fold="1" page="0" pageScale="1.5" pageWidth="1169" pageHeight="826" background="none" math="1" shadow="0">
      <root>
        <mxCell id="0" style=";html=1;" />
        <mxCell id="1" style=";html=1;" parent="0" />
        <mxCell id="7A7Ont4KWelb-mQZ-whx-98" value="&lt;font style=&quot;font-size: 35px;&quot;&gt;2 - Identification&lt;/font&gt;" style="rounded=1;whiteSpace=wrap;html=1;fillColor=#dae8fc;strokeColor=#6c8ebf;fontSize=35;fontStyle=1;verticalAlign=bottom;labelPosition=center;verticalLabelPosition=top;align=center;" parent="1" vertex="1">
          <mxGeometry x="203" y="160" width="274" height="620" as="geometry" />
        </mxCell>
        <mxCell id="7A7Ont4KWelb-mQZ-whx-1" value="&lt;b style=&quot;font-size: 36px;&quot;&gt;3 - Estimation&lt;/b&gt;" style="rounded=1;whiteSpace=wrap;html=1;fillColor=#b0e3e6;strokeColor=#0e8088;fontSize=36;labelPosition=center;verticalLabelPosition=top;align=center;verticalAlign=bottom;spacingLeft=0;" parent="1" vertex="1">
          <mxGeometry x="513" y="160" width="990" height="620" as="geometry" />
        </mxCell>
        <mxCell id="UJCGpMKkWv5VHLOaRZoO-3" value="&lt;font style=&quot;font-size: 30px;&quot;&gt;Feature extraction&lt;br&gt;&lt;/font&gt;" style="rounded=1;whiteSpace=wrap;html=1;verticalAlign=bottom;labelPosition=center;verticalLabelPosition=top;align=center;fillColor=#b0e3e6;strokeColor=#0e8088;strokeWidth=4;fontStyle=1" parent="1" vertex="1">
          <mxGeometry x="540" y="212" width="280" height="540" as="geometry" />
        </mxCell>
        <mxCell id="UJCGpMKkWv5VHLOaRZoO-26" style="edgeStyle=orthogonalEdgeStyle;rounded=0;orthogonalLoop=1;jettySize=auto;html=1;exitX=1;exitY=0.25;exitDx=0;exitDy=0;fontSize=15;fontColor=#000000;entryX=1;entryY=0.5;entryDx=0;entryDy=0;curved=1;strokeWidth=22;endArrow=block;endFill=1;" parent="1" edge="1">
          <mxGeometry relative="1" as="geometry">
            <mxPoint x="650.0000000000005" y="477" as="sourcePoint" />
            <mxPoint x="715" y="342" as="targetPoint" />
          </mxGeometry>
        </mxCell>
        <mxCell id="UJCGpMKkWv5VHLOaRZoO-20" value="" style="rounded=0;whiteSpace=wrap;html=1;sketch=0;fontSize=15;fillColor=#d5e8d4;strokeColor=#82b366;strokeWidth=3;" parent="1" vertex="1">
          <mxGeometry x="594" y="392" width="50" height="300" as="geometry" />
        </mxCell>
        <mxCell id="UJCGpMKkWv5VHLOaRZoO-27" value="" style="shape=actor;whiteSpace=wrap;html=1;sketch=0;fontSize=15;fillColor=#d5e8d4;strokeColor=#82b366;" parent="1" vertex="1">
          <mxGeometry x="550" y="262" width="50" height="60" as="geometry" />
        </mxCell>
        <mxCell id="UJCGpMKkWv5VHLOaRZoO-28" value="" style="shape=image;html=1;verticalAlign=top;verticalLabelPosition=bottom;labelBackgroundColor=#ffffff;imageAspect=0;aspect=fixed;image=https://cdn4.iconfinder.com/data/icons/developer-set-3/128/sc1-128.png;sketch=0;strokeColor=default;strokeWidth=3;fontSize=15;fontColor=#000000;fillColor=#7EA6E0;" parent="1" vertex="1">
          <mxGeometry x="500" y="388" width="133" height="133" as="geometry" />
        </mxCell>
        <mxCell id="UJCGpMKkWv5VHLOaRZoO-34" value="Causal estimator" style="rounded=1;whiteSpace=wrap;html=1;verticalAlign=bottom;labelPosition=center;verticalLabelPosition=top;align=center;fillColor=#b0e3e6;strokeColor=#0e8088;fontSize=30;strokeWidth=4;fontStyle=1" parent="1" vertex="1">
          <mxGeometry x="850" y="212" width="300" height="550" as="geometry" />
        </mxCell>
        <mxCell id="JQVkvr5YXo8bN9fTYGfa-1" value="`x`" style="text;html=1;strokeColor=#82b366;fillColor=#d5e8d4;align=center;verticalAlign=middle;whiteSpace=wrap;rounded=0;sketch=0;strokeWidth=1;fontSize=45;" parent="1" vertex="1">
          <mxGeometry x="620" y="242" width="180" height="100" as="geometry" />
        </mxCell>
        <mxCell id="JQVkvr5YXo8bN9fTYGfa-2" value="$$e(x)=\mathbb{P}[A=1|x]$$" style="text;html=1;strokeColor=none;fillColor=none;align=center;verticalAlign=middle;whiteSpace=wrap;rounded=0;sketch=0;strokeWidth=1;fontSize=30;fontColor=#000000;" parent="1" vertex="1">
          <mxGeometry x="850" y="421" width="310" height="100" as="geometry" />
        </mxCell>
        <mxCell id="JQVkvr5YXo8bN9fTYGfa-8" value="Double-robust" style="text;html=1;strokeColor=none;fillColor=none;align=center;verticalAlign=middle;whiteSpace=wrap;rounded=0;fontSize=30;fontStyle=1" parent="1" vertex="1">
          <mxGeometry x="800" y="562" width="330" height="30" as="geometry" />
        </mxCell>
        <mxCell id="JQVkvr5YXo8bN9fTYGfa-9" value="IPW" style="text;html=1;strokeColor=none;fillColor=none;align=center;verticalAlign=middle;whiteSpace=wrap;rounded=0;fontSize=30;fontStyle=1" parent="1" vertex="1">
          <mxGeometry x="800" y="412" width="180" height="30" as="geometry" />
        </mxCell>
        <mxCell id="JQVkvr5YXo8bN9fTYGfa-10" value="$$\big(e(x), \mu(a;x)\big)$$" style="text;html=1;strokeColor=none;fillColor=none;align=center;verticalAlign=middle;whiteSpace=wrap;rounded=0;sketch=0;strokeWidth=1;fontSize=30;fontColor=#000000;" parent="1" vertex="1">
          <mxGeometry x="799" y="592" width="450" height="100" as="geometry" />
        </mxCell>
        <mxCell id="JQVkvr5YXo8bN9fTYGfa-13" value="Nuisance estimator" style="rounded=1;whiteSpace=wrap;html=1;verticalAlign=bottom;labelPosition=center;verticalLabelPosition=top;align=center;fillColor=#b0e3e6;strokeColor=#0e8088;fontSize=30;strokeWidth=4;fontStyle=1" parent="1" vertex="1">
          <mxGeometry x="1180" y="212" width="300" height="550" as="geometry" />
        </mxCell>
        <mxCell id="JQVkvr5YXo8bN9fTYGfa-19" value="" style="shape=image;imageAspect=0;aspect=fixed;verticalLabelPosition=bottom;verticalAlign=top;fontSize=30;image=https://external-content.duckduckgo.com/iu/?u=https%3A%2F%2Fcdn0.iconfinder.com%2Fdata%2Ficons%2Fpresentation-graphs-vol-2%2F48%2Fv-35-512.png&amp;f=1&amp;nofb=1;" parent="1" vertex="1">
          <mxGeometry x="1310" y="241" width="180" height="180" as="geometry" />
        </mxCell>
        <mxCell id="JQVkvr5YXo8bN9fTYGfa-20" value="" style="shape=image;imageAspect=0;aspect=fixed;verticalLabelPosition=bottom;verticalAlign=top;fontSize=30;image=https://external-content.duckduckgo.com/iu/?u=https%3A%2F%2Ficons.veryicon.com%2Fpng%2Fo%2Fmiscellaneous%2Fcolor-work-icon%2Fartificial-neural-network.png&amp;f=1&amp;nofb=1;" parent="1" vertex="1">
          <mxGeometry x="1315" y="592" width="162" height="162" as="geometry" />
        </mxCell>
        <mxCell id="JQVkvr5YXo8bN9fTYGfa-22" value="" style="shape=image;verticalLabelPosition=bottom;labelBackgroundColor=default;verticalAlign=top;aspect=fixed;imageAspect=0;image=https://static.thenounproject.com/png/961660-200.png;" parent="1" vertex="1">
          <mxGeometry x="1190" y="412" width="172.5" height="172.5" as="geometry" />
        </mxCell>
        <mxCell id="0Q4zFY5bsi0acfPpEXqV-4" value="$$\mu(a;x)=\mathbb{E}[Y|a;x]$$" style="text;html=1;strokeColor=none;fillColor=none;align=center;verticalAlign=middle;whiteSpace=wrap;rounded=0;sketch=0;strokeWidth=1;fontSize=30;fontColor=#000000;" parent="1" vertex="1">
          <mxGeometry x="850" y="292" width="310" height="100" as="geometry" />
        </mxCell>
        <mxCell id="JQVkvr5YXo8bN9fTYGfa-6" value="G-formula" style="text;html=1;strokeColor=none;fillColor=none;align=center;verticalAlign=middle;whiteSpace=wrap;rounded=0;fontSize=30;fontStyle=1" parent="1" vertex="1">
          <mxGeometry x="840" y="277" width="180" height="30" as="geometry" />
        </mxCell>
        <mxCell id="7A7Ont4KWelb-mQZ-whx-2" value="&lt;font style=&quot;font-size: 26px;&quot;&gt;&lt;span style=&quot;font-size: 26px;&quot;&gt;Linear Regression&lt;/span&gt;&lt;/font&gt;" style="text;html=1;strokeColor=none;fillColor=none;align=center;verticalAlign=middle;whiteSpace=wrap;rounded=0;fontSize=26;fontStyle=1" parent="1" vertex="1">
          <mxGeometry x="1174" y="279" width="170" height="93" as="geometry" />
        </mxCell>
        <mxCell id="7A7Ont4KWelb-mQZ-whx-4" value="&lt;span style=&quot;font-size: 26px;&quot;&gt;Tree&lt;/span&gt;s" style="text;html=1;strokeColor=none;fillColor=none;align=center;verticalAlign=middle;whiteSpace=wrap;rounded=0;fontSize=26;fontStyle=1" parent="1" vertex="1">
          <mxGeometry x="1360" y="483.5" width="100" height="57.5" as="geometry" />
        </mxCell>
        <mxCell id="7A7Ont4KWelb-mQZ-whx-5" value="Neural Networks" style="text;html=1;strokeColor=none;fillColor=none;align=center;verticalAlign=middle;whiteSpace=wrap;rounded=0;fontSize=26;fontStyle=1" parent="1" vertex="1">
          <mxGeometry x="1165" y="622" width="170" height="93" as="geometry" />
        </mxCell>
        <mxCell id="7A7Ont4KWelb-mQZ-whx-83" value="" style="group" parent="1" vertex="1" connectable="0">
          <mxGeometry x="-60.25" y="110" width="303.25" height="670" as="geometry" />
        </mxCell>
        <mxCell id="7A7Ont4KWelb-mQZ-whx-6" value="1 - Framing" style="rounded=1;whiteSpace=wrap;html=1;fillColor=#f5f5f5;strokeColor=#666666;fontSize=36;fontStyle=1;fontColor=#333333;verticalAlign=bottom;horizontal=1;labelPosition=center;verticalLabelPosition=top;align=center;" parent="7A7Ont4KWelb-mQZ-whx-83" vertex="1">
          <mxGeometry x="-7" y="50" width="230.25" height="620" as="geometry" />
        </mxCell>
        <mxCell id="7A7Ont4KWelb-mQZ-whx-65" value="&lt;font&gt;ðŸ’Š &lt;b&gt;Comparator &lt;/b&gt;&lt;i&gt;&lt;br&gt;&lt;/i&gt;&lt;/font&gt;&lt;i&gt;A=0, &lt;/i&gt;&lt;i&gt;crystralloids&lt;/i&gt;" style="text;html=1;strokeColor=none;fillColor=none;align=center;verticalAlign=middle;whiteSpace=wrap;rounded=0;fontSize=28;fontColor=#000000;" parent="7A7Ont4KWelb-mQZ-whx-83" vertex="1">
          <mxGeometry x="-7.75" y="379" width="224.75" height="97" as="geometry" />
        </mxCell>
        <mxCell id="7A7Ont4KWelb-mQZ-whx-67" value="&lt;font style=&quot;font-size: 28px;&quot; color=&quot;#000000&quot;&gt;&lt;b style=&quot;font-size: 28px;&quot;&gt;ðŸ“ˆ &lt;/b&gt;&lt;/font&gt;&lt;font style=&quot;font-size: 28px;&quot; color=&quot;#000000&quot;&gt;&lt;b style=&quot;font-size: 28px;&quot;&gt;Outcome&lt;/b&gt;&lt;/font&gt;&lt;font color=&quot;#000000&quot;&gt;&lt;br&gt;&lt;i&gt;Y = 28-day mortality&lt;br&gt;&lt;/i&gt;&lt;/font&gt;" style="text;html=1;strokeColor=none;fillColor=none;align=center;verticalAlign=middle;whiteSpace=wrap;rounded=0;fontSize=28;fontColor=#B5739D;" parent="7A7Ont4KWelb-mQZ-whx-83" vertex="1">
          <mxGeometry x="-35.75" y="484" width="243" height="74" as="geometry" />
        </mxCell>
        <mxCell id="7A7Ont4KWelb-mQZ-whx-68" value="&lt;font&gt;ðŸ’Š &lt;font style=&quot;font-size: 28px;&quot;&gt;&lt;b style=&quot;font-size: 28px;&quot;&gt;Intervention&lt;/b&gt;&lt;/font&gt;&lt;/font&gt;&lt;br&gt;&lt;i&gt;A =1, albumin + crystralloids&lt;br&gt;&lt;/i&gt;" style="text;html=1;strokeColor=none;fillColor=none;align=center;verticalAlign=middle;whiteSpace=wrap;rounded=0;fontSize=28;fontColor=#000000;" parent="7A7Ont4KWelb-mQZ-whx-83" vertex="1">
          <mxGeometry x="-0.75" y="299" width="210.75" height="61" as="geometry" />
        </mxCell>
        <mxCell id="7A7Ont4KWelb-mQZ-whx-71" value="âŒ› &lt;font style=&quot;font-size: 28px;&quot;&gt;&lt;b style=&quot;font-size: 28px;&quot;&gt;Time&lt;/b&gt;&lt;/font&gt;" style="text;html=1;strokeColor=none;fillColor=none;align=center;verticalAlign=middle;whiteSpace=wrap;rounded=0;fontSize=28;fontColor=#000000;" parent="7A7Ont4KWelb-mQZ-whx-83" vertex="1">
          <mxGeometry x="-54" y="585" width="243" height="30" as="geometry" />
        </mxCell>
        <mxCell id="7A7Ont4KWelb-mQZ-whx-82" value="" style="group" parent="7A7Ont4KWelb-mQZ-whx-83" vertex="1" connectable="0">
          <mxGeometry x="27.5" y="50" width="155.5" height="130" as="geometry" />
        </mxCell>
        <mxCell id="7A7Ont4KWelb-mQZ-whx-77" value="" style="verticalLabelPosition=bottom;html=1;verticalAlign=top;align=center;strokeColor=#6c8ebf;fillColor=#dae8fc;shape=mxgraph.azure.user;" parent="7A7Ont4KWelb-mQZ-whx-82" vertex="1">
          <mxGeometry x="44.5" y="10" width="45.5" height="50" as="geometry" />
        </mxCell>
        <mxCell id="7A7Ont4KWelb-mQZ-whx-78" value="" style="verticalLabelPosition=bottom;html=1;verticalAlign=top;align=center;strokeColor=#d79b00;fillColor=#ffe6cc;shape=mxgraph.azure.user;" parent="7A7Ont4KWelb-mQZ-whx-82" vertex="1">
          <mxGeometry y="60" width="45.5" height="50" as="geometry" />
        </mxCell>
        <mxCell id="7A7Ont4KWelb-mQZ-whx-79" value="" style="verticalLabelPosition=bottom;html=1;verticalAlign=top;align=center;strokeColor=#d79b00;fillColor=#ffe6cc;shape=mxgraph.azure.user;" parent="7A7Ont4KWelb-mQZ-whx-82" vertex="1">
          <mxGeometry x="55" y="80" width="45.5" height="50" as="geometry" />
        </mxCell>
        <mxCell id="7A7Ont4KWelb-mQZ-whx-80" value="" style="verticalLabelPosition=bottom;html=1;verticalAlign=top;align=center;strokeColor=#d79b00;fillColor=#ffe6cc;shape=mxgraph.azure.user;" parent="7A7Ont4KWelb-mQZ-whx-82" vertex="1">
          <mxGeometry x="104.5" y="60" width="45.5" height="50" as="geometry" />
        </mxCell>
        <mxCell id="7A7Ont4KWelb-mQZ-whx-81" value="" style="verticalLabelPosition=bottom;html=1;verticalAlign=top;align=center;strokeColor=#6c8ebf;fillColor=#dae8fc;shape=mxgraph.azure.user;" parent="7A7Ont4KWelb-mQZ-whx-82" vertex="1">
          <mxGeometry x="110" width="45.5" height="50" as="geometry" />
        </mxCell>
        <mxCell id="7A7Ont4KWelb-mQZ-whx-84" value="&lt;font&gt;&lt;b&gt;Population&lt;/b&gt;&lt;/font&gt;&lt;i&gt;&lt;br&gt;Patients with sepsis in the ICU&lt;/i&gt;" style="text;html=1;strokeColor=none;fillColor=none;align=center;verticalAlign=middle;whiteSpace=wrap;rounded=0;fontSize=28;fontColor=#000000;" parent="7A7Ont4KWelb-mQZ-whx-83" vertex="1">
          <mxGeometry x="-14.75" y="190" width="243" height="61" as="geometry" />
        </mxCell>
        <mxCell id="7A7Ont4KWelb-mQZ-whx-100" value="" style="group" parent="1" vertex="1" connectable="0">
          <mxGeometry x="247.00000000000003" y="240" width="195.71000000000004" height="190.2800000000001" as="geometry" />
        </mxCell>
        <mxCell id="7A7Ont4KWelb-mQZ-whx-17" value="A" style="ellipse;whiteSpace=wrap;html=1;fontSize=32;fontStyle=1" parent="7A7Ont4KWelb-mQZ-whx-100" vertex="1">
          <mxGeometry y="125.04114285714286" width="65.23666666666668" height="65.23885714285714" as="geometry" />
        </mxCell>
        <mxCell id="7A7Ont4KWelb-mQZ-whx-20" value="Y" style="ellipse;whiteSpace=wrap;html=1;fontSize=32;fontStyle=1" parent="7A7Ont4KWelb-mQZ-whx-100" vertex="1">
          <mxGeometry x="130.47333333333336" y="125.04114285714286" width="65.23666666666668" height="65.23885714285714" as="geometry" />
        </mxCell>
        <mxCell id="7A7Ont4KWelb-mQZ-whx-22" style="rounded=0;orthogonalLoop=1;jettySize=auto;html=1;exitX=0.5;exitY=1;exitDx=0;exitDy=0;entryX=1;entryY=0;entryDx=0;entryDy=0;strokeWidth=5;endArrow=block;endFill=1;" parent="7A7Ont4KWelb-mQZ-whx-100" source="7A7Ont4KWelb-mQZ-whx-21" target="7A7Ont4KWelb-mQZ-whx-17" edge="1">
          <mxGeometry relative="1" as="geometry" />
        </mxCell>
        <mxCell id="7A7Ont4KWelb-mQZ-whx-24" style="rounded=0;orthogonalLoop=1;jettySize=auto;html=1;exitX=0.5;exitY=1;exitDx=0;exitDy=0;entryX=0;entryY=0;entryDx=0;entryDy=0;endArrow=block;endFill=1;strokeWidth=5;" parent="7A7Ont4KWelb-mQZ-whx-100" source="7A7Ont4KWelb-mQZ-whx-21" target="7A7Ont4KWelb-mQZ-whx-20" edge="1">
          <mxGeometry relative="1" as="geometry" />
        </mxCell>
        <mxCell id="7A7Ont4KWelb-mQZ-whx-21" value="X" style="ellipse;whiteSpace=wrap;html=1;fontSize=32;fontStyle=1" parent="7A7Ont4KWelb-mQZ-whx-100" vertex="1">
          <mxGeometry x="65.23666666666668" width="65.23666666666668" height="65.23885714285714" as="geometry" />
        </mxCell>
        <mxCell id="7A7Ont4KWelb-mQZ-whx-101" value="" style="group" parent="1" vertex="1" connectable="0">
          <mxGeometry x="209" y="511" width="240" height="250" as="geometry" />
        </mxCell>
        <mxCell id="7A7Ont4KWelb-mQZ-whx-26" value="$$\mathbb{E}[Y(1)]$$" style="text;html=1;strokeColor=none;fillColor=none;align=center;verticalAlign=middle;whiteSpace=wrap;rounded=0;sketch=0;strokeWidth=1;fontSize=30;fontColor=#000000;" parent="7A7Ont4KWelb-mQZ-whx-101" vertex="1">
          <mxGeometry x="31" y="-40" width="160" height="105" as="geometry" />
        </mxCell>
        <mxCell id="7A7Ont4KWelb-mQZ-whx-99" value="$$- \mathbb{E}[Y(0)]$$" style="text;html=1;strokeColor=none;fillColor=none;align=center;verticalAlign=middle;whiteSpace=wrap;rounded=0;sketch=0;strokeWidth=1;fontSize=30;fontColor=#000000;" parent="7A7Ont4KWelb-mQZ-whx-101" vertex="1">
          <mxGeometry x="80" y="12.5" width="160" height="105" as="geometry" />
        </mxCell>
        <mxCell id="CV9kcK9nF445CTVKKeTw-3" value="&lt;b&gt;Estimand&lt;/b&gt;" style="text;whiteSpace=wrap;html=1;fontSize=28;" parent="7A7Ont4KWelb-mQZ-whx-101" vertex="1">
          <mxGeometry x="41" y="-55" width="140" height="40" as="geometry" />
        </mxCell>
        <mxCell id="SahqUx1cHa1N3F9CKj1D-2" value="&lt;b&gt;Look for other sources of bias&lt;br&gt;&lt;/b&gt;" style="text;whiteSpace=wrap;html=1;fontSize=28;" parent="7A7Ont4KWelb-mQZ-whx-101" vertex="1">
          <mxGeometry x="41" y="129" width="189" height="121" as="geometry" />
        </mxCell>
        <mxCell id="7A7Ont4KWelb-mQZ-whx-103" value="4 - Vibration&lt;br style=&quot;font-size: 35px;&quot;&gt;Analysis" style="rounded=1;whiteSpace=wrap;html=1;fillColor=#b1ddf0;strokeColor=#10739e;fontSize=35;fontStyle=1;verticalAlign=bottom;labelPosition=center;verticalLabelPosition=top;align=center;" parent="1" vertex="1">
          <mxGeometry x="1540" y="160" width="210" height="620" as="geometry" />
        </mxCell>
        <mxCell id="7A7Ont4KWelb-mQZ-whx-124" value="" style="group;fillColor=none;strokeColor=none;" parent="1" vertex="1" connectable="0">
          <mxGeometry x="1554" y="324" width="160" height="330" as="geometry" />
        </mxCell>
        <mxCell id="7A7Ont4KWelb-mQZ-whx-123" value="" style="rounded=1;whiteSpace=wrap;html=1;" parent="7A7Ont4KWelb-mQZ-whx-124" vertex="1">
          <mxGeometry width="160" height="330" as="geometry" />
        </mxCell>
        <mxCell id="7A7Ont4KWelb-mQZ-whx-116" value="" style="endArrow=none;html=1;rounded=0;" parent="7A7Ont4KWelb-mQZ-whx-124" edge="1">
          <mxGeometry width="50" height="50" relative="1" as="geometry">
            <mxPoint x="7.272727272727273" y="233.75" as="sourcePoint" />
            <mxPoint x="109.0909090909091" y="233.75" as="targetPoint" />
          </mxGeometry>
        </mxCell>
        <mxCell id="7A7Ont4KWelb-mQZ-whx-105" value="" style="endArrow=none;dashed=1;html=1;rounded=0;exitX=0.5;exitY=0;exitDx=0;exitDy=0;" parent="7A7Ont4KWelb-mQZ-whx-124" source="7A7Ont4KWelb-mQZ-whx-108" edge="1">
          <mxGeometry width="50" height="50" relative="1" as="geometry">
            <mxPoint x="94.54545454545455" y="302.5" as="sourcePoint" />
            <mxPoint x="94.54545454545455" y="13.75" as="targetPoint" />
          </mxGeometry>
        </mxCell>
        <mxCell id="7A7Ont4KWelb-mQZ-whx-106" value="" style="endArrow=none;html=1;rounded=0;entryX=1;entryY=0;entryDx=0;entryDy=0;" parent="7A7Ont4KWelb-mQZ-whx-124" target="7A7Ont4KWelb-mQZ-whx-109" edge="1">
          <mxGeometry width="50" height="50" relative="1" as="geometry">
            <mxPoint x="7.272727272727273" y="288.75" as="sourcePoint" />
            <mxPoint x="181.8181818181818" y="288.75" as="targetPoint" />
          </mxGeometry>
        </mxCell>
        <mxCell id="7A7Ont4KWelb-mQZ-whx-107" value="&amp;nbsp;- 0.1" style="text;html=1;strokeColor=none;fillColor=none;align=center;verticalAlign=middle;whiteSpace=wrap;rounded=0;" parent="7A7Ont4KWelb-mQZ-whx-124" vertex="1">
          <mxGeometry x="43.63636363636364" y="288.75" width="43.63636363636364" height="41.25" as="geometry" />
        </mxCell>
        <mxCell id="7A7Ont4KWelb-mQZ-whx-108" value="0" style="text;html=1;strokeColor=none;fillColor=none;align=center;verticalAlign=middle;whiteSpace=wrap;rounded=0;" parent="7A7Ont4KWelb-mQZ-whx-124" vertex="1">
          <mxGeometry x="72.72727272727273" y="288.75" width="43.63636363636364" height="41.25" as="geometry" />
        </mxCell>
        <mxCell id="7A7Ont4KWelb-mQZ-whx-109" value="&amp;nbsp;- 0.1" style="text;html=1;strokeColor=none;fillColor=none;align=center;verticalAlign=middle;whiteSpace=wrap;rounded=0;" parent="7A7Ont4KWelb-mQZ-whx-124" vertex="1">
          <mxGeometry x="109.0909090909091" y="288.75" width="43.63636363636364" height="41.25" as="geometry" />
        </mxCell>
        <mxCell id="7A7Ont4KWelb-mQZ-whx-111" value="" style="endArrow=none;html=1;rounded=0;" parent="7A7Ont4KWelb-mQZ-whx-124" edge="1">
          <mxGeometry width="50" height="50" relative="1" as="geometry">
            <mxPoint x="65.33818181818184" y="295.625" as="sourcePoint" />
            <mxPoint x="65.33818181818184" y="281.875" as="targetPoint" />
          </mxGeometry>
        </mxCell>
        <mxCell id="7A7Ont4KWelb-mQZ-whx-112" value="" style="endArrow=none;html=1;rounded=0;" parent="7A7Ont4KWelb-mQZ-whx-124" edge="1">
          <mxGeometry width="50" height="50" relative="1" as="geometry">
            <mxPoint x="123.52000000000002" y="295.625" as="sourcePoint" />
            <mxPoint x="123.52000000000002" y="281.875" as="targetPoint" />
          </mxGeometry>
        </mxCell>
        <mxCell id="7A7Ont4KWelb-mQZ-whx-114" value="" style="endArrow=none;html=1;rounded=0;" parent="7A7Ont4KWelb-mQZ-whx-124" edge="1">
          <mxGeometry width="50" height="50" relative="1" as="geometry">
            <mxPoint x="36.24727272727275" y="295.625" as="sourcePoint" />
            <mxPoint x="36.24727272727275" y="281.875" as="targetPoint" />
          </mxGeometry>
        </mxCell>
        <mxCell id="7A7Ont4KWelb-mQZ-whx-115" value="" style="rounded=0;whiteSpace=wrap;html=1;fillColor=#000000;" parent="7A7Ont4KWelb-mQZ-whx-124" vertex="1">
          <mxGeometry x="50.909090909090914" y="220" width="14.545454545454547" height="27.5" as="geometry" />
        </mxCell>
        <mxCell id="7A7Ont4KWelb-mQZ-whx-117" value="" style="endArrow=none;html=1;rounded=0;" parent="7A7Ont4KWelb-mQZ-whx-124" edge="1">
          <mxGeometry width="50" height="50" relative="1" as="geometry">
            <mxPoint x="50.909090909090914" y="178.75" as="sourcePoint" />
            <mxPoint x="101.81818181818183" y="178.75" as="targetPoint" />
          </mxGeometry>
        </mxCell>
        <mxCell id="7A7Ont4KWelb-mQZ-whx-118" value="" style="rounded=0;whiteSpace=wrap;html=1;fillColor=#000000;" parent="7A7Ont4KWelb-mQZ-whx-124" vertex="1">
          <mxGeometry x="72.72727272727273" y="165" width="14.545454545454547" height="27.5" as="geometry" />
        </mxCell>
        <mxCell id="7A7Ont4KWelb-mQZ-whx-119" value="" style="endArrow=none;html=1;rounded=0;" parent="7A7Ont4KWelb-mQZ-whx-124" edge="1">
          <mxGeometry width="50" height="50" relative="1" as="geometry">
            <mxPoint x="7.272727272727273" y="110" as="sourcePoint" />
            <mxPoint x="109.0909090909091" y="110" as="targetPoint" />
          </mxGeometry>
        </mxCell>
        <mxCell id="7A7Ont4KWelb-mQZ-whx-120" value="" style="rounded=0;whiteSpace=wrap;html=1;fillColor=#000000;" parent="7A7Ont4KWelb-mQZ-whx-124" vertex="1">
          <mxGeometry x="50.909090909090914" y="96.25" width="14.545454545454547" height="27.5" as="geometry" />
        </mxCell>
        <mxCell id="7A7Ont4KWelb-mQZ-whx-121" value="" style="endArrow=none;html=1;rounded=0;" parent="7A7Ont4KWelb-mQZ-whx-124" edge="1">
          <mxGeometry width="50" height="50" relative="1" as="geometry">
            <mxPoint x="87.27272727272728" y="68.75" as="sourcePoint" />
            <mxPoint x="138.1818181818182" y="68.75" as="targetPoint" />
          </mxGeometry>
        </mxCell>
        <mxCell id="7A7Ont4KWelb-mQZ-whx-122" value="" style="rounded=0;whiteSpace=wrap;html=1;fillColor=#000000;" parent="7A7Ont4KWelb-mQZ-whx-124" vertex="1">
          <mxGeometry x="109.0909090909091" y="55" width="14.545454545454547" height="27.5" as="geometry" />
        </mxCell>
        <mxCell id="CV9kcK9nF445CTVKKeTw-2" value="Confounders" style="text;whiteSpace=wrap;html=1;fontSize=28;fontStyle=1" parent="1" vertex="1">
          <mxGeometry x="247" y="190" width="230" height="40" as="geometry" />
        </mxCell>
        <mxCell id="Ovc3esVCRfBxRKt_X9Ao-7" value="5 - CATE" style="rounded=1;whiteSpace=wrap;html=1;fillColor=#8EB7DB;strokeColor=#23445d;fontSize=36;fontStyle=1;verticalAlign=bottom;labelPosition=center;verticalLabelPosition=top;align=center;" parent="1" vertex="1">
          <mxGeometry x="1786" y="160" width="210" height="620" as="geometry" />
        </mxCell>
        <mxCell id="Ovc3esVCRfBxRKt_X9Ao-8" value="" style="group;fillColor=none;strokeColor=none;" parent="1" vertex="1" connectable="0">
          <mxGeometry x="1796" y="380" width="180" height="240" as="geometry" />
        </mxCell>
        <mxCell id="Ovc3esVCRfBxRKt_X9Ao-9" value="" style="rounded=1;whiteSpace=wrap;html=1;" parent="Ovc3esVCRfBxRKt_X9Ao-8" vertex="1">
          <mxGeometry width="180" height="240" as="geometry" />
        </mxCell>
        <mxCell id="Ovc3esVCRfBxRKt_X9Ao-11" value="" style="endArrow=none;dashed=1;html=1;rounded=0;exitX=0.5;exitY=0;exitDx=0;exitDy=0;" parent="Ovc3esVCRfBxRKt_X9Ao-8" source="Ovc3esVCRfBxRKt_X9Ao-14" edge="1">
          <mxGeometry width="50" height="50" relative="1" as="geometry">
            <mxPoint x="106.36363636363636" y="220" as="sourcePoint" />
            <mxPoint x="106.36363636363636" y="10" as="targetPoint" />
          </mxGeometry>
        </mxCell>
        <mxCell id="Ovc3esVCRfBxRKt_X9Ao-12" value="" style="endArrow=none;html=1;rounded=0;entryX=1;entryY=0;entryDx=0;entryDy=0;" parent="Ovc3esVCRfBxRKt_X9Ao-8" target="Ovc3esVCRfBxRKt_X9Ao-15" edge="1">
          <mxGeometry width="50" height="50" relative="1" as="geometry">
            <mxPoint x="8.181818181818183" y="210" as="sourcePoint" />
            <mxPoint x="204.54545454545456" y="210" as="targetPoint" />
          </mxGeometry>
        </mxCell>
        <mxCell id="Ovc3esVCRfBxRKt_X9Ao-13" value="&amp;nbsp;- 0.1" style="text;html=1;strokeColor=none;fillColor=none;align=center;verticalAlign=middle;whiteSpace=wrap;rounded=0;" parent="Ovc3esVCRfBxRKt_X9Ao-8" vertex="1">
          <mxGeometry x="49.09090909090909" y="210" width="49.09090909090909" height="30" as="geometry" />
        </mxCell>
        <mxCell id="Ovc3esVCRfBxRKt_X9Ao-14" value="0" style="text;html=1;strokeColor=none;fillColor=none;align=center;verticalAlign=middle;whiteSpace=wrap;rounded=0;" parent="Ovc3esVCRfBxRKt_X9Ao-8" vertex="1">
          <mxGeometry x="81.81818181818183" y="210" width="49.09090909090909" height="30" as="geometry" />
        </mxCell>
        <mxCell id="Ovc3esVCRfBxRKt_X9Ao-15" value="&amp;nbsp;- 0.1" style="text;html=1;strokeColor=none;fillColor=none;align=center;verticalAlign=middle;whiteSpace=wrap;rounded=0;" parent="Ovc3esVCRfBxRKt_X9Ao-8" vertex="1">
          <mxGeometry x="122.72727272727272" y="210" width="49.09090909090909" height="30" as="geometry" />
        </mxCell>
        <mxCell id="Ovc3esVCRfBxRKt_X9Ao-16" value="" style="endArrow=none;html=1;rounded=0;" parent="Ovc3esVCRfBxRKt_X9Ao-8" edge="1">
          <mxGeometry width="50" height="50" relative="1" as="geometry">
            <mxPoint x="73.50545454545455" y="215.00000000000006" as="sourcePoint" />
            <mxPoint x="73.50545454545455" y="205" as="targetPoint" />
          </mxGeometry>
        </mxCell>
        <mxCell id="Ovc3esVCRfBxRKt_X9Ao-17" value="" style="endArrow=none;html=1;rounded=0;" parent="Ovc3esVCRfBxRKt_X9Ao-8" edge="1">
          <mxGeometry width="50" height="50" relative="1" as="geometry">
            <mxPoint x="138.96000000000004" y="215.00000000000006" as="sourcePoint" />
            <mxPoint x="138.96000000000004" y="205" as="targetPoint" />
          </mxGeometry>
        </mxCell>
        <mxCell id="Ovc3esVCRfBxRKt_X9Ao-18" value="" style="endArrow=none;html=1;rounded=0;" parent="Ovc3esVCRfBxRKt_X9Ao-8" edge="1">
          <mxGeometry width="50" height="50" relative="1" as="geometry">
            <mxPoint x="40.77818181818184" y="215.00000000000006" as="sourcePoint" />
            <mxPoint x="40.77818181818184" y="205" as="targetPoint" />
          </mxGeometry>
        </mxCell>
        <mxCell id="Ovc3esVCRfBxRKt_X9Ao-22" value="" style="endArrow=none;html=1;rounded=0;fillColor=#d5e8d4;strokeColor=#82b366;strokeWidth=5;" parent="Ovc3esVCRfBxRKt_X9Ao-8" edge="1">
          <mxGeometry width="50" height="50" relative="1" as="geometry">
            <mxPoint x="11.251818181818184" y="170" as="sourcePoint" />
            <mxPoint x="100" y="170" as="targetPoint" />
          </mxGeometry>
        </mxCell>
        <mxCell id="Ovc3esVCRfBxRKt_X9Ao-23" value="" style="rounded=0;whiteSpace=wrap;html=1;fillColor=#d5e8d4;strokeColor=#82b366;strokeWidth=1;" parent="Ovc3esVCRfBxRKt_X9Ao-8" vertex="1">
          <mxGeometry x="45.52" y="155" width="16.36" height="30" as="geometry" />
        </mxCell>
        <mxCell id="Ovc3esVCRfBxRKt_X9Ao-24" value="" style="endArrow=none;html=1;rounded=0;fillColor=#ffe6cc;strokeColor=#d79b00;strokeWidth=5;entryX=0.889;entryY=0.208;entryDx=0;entryDy=0;entryPerimeter=0;" parent="Ovc3esVCRfBxRKt_X9Ao-8" edge="1">
          <mxGeometry width="50" height="50" relative="1" as="geometry">
            <mxPoint x="98.18181818181819" y="70" as="sourcePoint" />
            <mxPoint x="160.02000000000044" y="69.91999999999996" as="targetPoint" />
          </mxGeometry>
        </mxCell>
        <mxCell id="Ovc3esVCRfBxRKt_X9Ao-26" value="Group 2" style="text;html=1;strokeColor=none;fillColor=none;align=center;verticalAlign=middle;whiteSpace=wrap;rounded=0;fontSize=26;fontFamily=Helvetica;fontColor=#97D077;fontStyle=1" parent="Ovc3esVCRfBxRKt_X9Ao-8" vertex="1">
          <mxGeometry x="-13" y="110" width="130" height="21.82" as="geometry" />
        </mxCell>
        <mxCell id="Ovc3esVCRfBxRKt_X9Ao-27" value="Group 1" style="text;html=1;strokeColor=none;fillColor=none;align=center;verticalAlign=middle;whiteSpace=wrap;rounded=0;fontSize=26;fontFamily=Helvetica;fontColor=#FFB570;fontStyle=1" parent="Ovc3esVCRfBxRKt_X9Ao-8" vertex="1">
          <mxGeometry x="-17.62" y="25" width="145.63" height="21.82" as="geometry" />
        </mxCell>
        <mxCell id="Ovc3esVCRfBxRKt_X9Ao-35" value="" style="rounded=0;whiteSpace=wrap;html=1;fillColor=#ffe6cc;strokeColor=#d79b00;strokeWidth=1;" parent="Ovc3esVCRfBxRKt_X9Ao-8" vertex="1">
          <mxGeometry x="123.65000000000009" y="55" width="16.36" height="30" as="geometry" />
        </mxCell>
        <mxCell id="Ovc3esVCRfBxRKt_X9Ao-32" value="&lt;font style=&quot;font-size: 26px;&quot;&gt;Question&amp;nbsp; analyses choices&lt;/font&gt;" style="text;html=1;strokeColor=none;fillColor=none;align=center;verticalAlign=middle;whiteSpace=wrap;rounded=0;fontSize=19;fontFamily=Helvetica;fontColor=default;fontStyle=1" parent="1" vertex="1">
          <mxGeometry x="1540" y="200" width="190" height="120" as="geometry" />
        </mxCell>
        <mxCell id="Ovc3esVCRfBxRKt_X9Ao-33" value="&lt;font style=&quot;font-size: 26px;&quot;&gt;Estimate treatment effect in subgroups&lt;/font&gt;" style="text;html=1;strokeColor=none;fillColor=none;align=center;verticalAlign=middle;whiteSpace=wrap;rounded=0;fontSize=28;fontFamily=Helvetica;fontColor=default;fontStyle=1" parent="1" vertex="1">
          <mxGeometry x="1779.75" y="210" width="226.5" height="120" as="geometry" />
        </mxCell>
        <mxCell id="UJCGpMKkWv5VHLOaRZoO-31" value="&lt;div style=&quot;font-size: 25px;&quot;&gt;&lt;span style=&quot;font-weight: normal;&quot;&gt;min&lt;/span&gt;&lt;/div&gt;&lt;div style=&quot;font-size: 25px;&quot;&gt;&lt;span style=&quot;font-weight: normal;&quot;&gt;max&lt;/span&gt;&lt;/div&gt;&lt;div style=&quot;font-size: 25px;&quot;&gt;&lt;span style=&quot;font-weight: normal;&quot;&gt;first&lt;/span&gt;&lt;/div&gt;&lt;div style=&quot;font-size: 25px;&quot;&gt;&lt;span style=&quot;font-weight: normal;&quot;&gt;last&lt;/span&gt;&lt;/div&gt;&lt;div style=&quot;font-size: 25px;&quot;&gt;&lt;span style=&quot;font-weight: normal;&quot;&gt;...&lt;/span&gt;&lt;br style=&quot;font-size: 25px;&quot;&gt;&lt;/div&gt;" style="rounded=1;whiteSpace=wrap;html=1;sketch=0;strokeWidth=1;fontSize=25;fillColor=#f5f5f5;fontColor=#333333;strokeColor=#666666;" parent="1" vertex="1">
          <mxGeometry x="680" y="555.5" width="100" height="176.5" as="geometry" />
        </mxCell>
        <mxCell id="UJCGpMKkWv5VHLOaRZoO-32" value="Aggregation &lt;br&gt;&lt;div align=&quot;center&quot;&gt;functions&lt;/div&gt;" style="text;whiteSpace=wrap;html=1;fontSize=25;fontColor=#000000;fontStyle=1" parent="1" vertex="1">
          <mxGeometry x="650" y="482" width="140" height="85" as="geometry" />
        </mxCell>
      </root>
    </mxGraphModel>
  </diagram>
</mxfile>
